<svg width="20px" height="20px" fill="#000" id="Layer_1" enable-background="new 0 0 90 90" viewBox="0 0 90 90" xmlns="http://www.w3.org/2000/svg"><g><path d="m23.374 43.204h43.245c1.74 0 2.881 1.188 2.881 2.568v26.636c0 1.379-1.141 2.563-2.881 2.563h-43.245c-1.734 0-2.874-1.183-2.874-2.563v-26.636c0-1.38 1.14-2.568 2.874-2.568zm21.626-28.265c2.869 0 5.738.74 8.312 2.219 5.145 2.97 8.303 8.432 8.303 14.354v5.197h-33.236v-5.197c0-5.923 3.162-11.385 8.307-14.354 2.574-1.479 5.443-2.219 8.314-2.219zm0-6.495c-3.995 0-7.991 1.027-11.563 3.084-7.147 4.119-11.558 11.744-11.558 19.984v5.328c-4.379.697-7.885 4.385-7.885 8.932v26.636c0 5.057 4.333 9.063 9.379 9.063h43.245c5.053 0 9.376-4.005 9.376-9.063v-26.636c0-4.547-3.5-8.235-7.876-8.932v-5.328c0-8.24-4.421-15.865-11.566-19.984-3.573-2.057-7.563-3.084-11.552-3.084z" ></path></g></svg>