<svg width='50px' height='50px' version="1.1" id="Capa_1" xmlns="http://www.w3.org/2000/svg" xmlns:xlink="http://www.w3.org/1999/xlink" x="0px" y="0px" viewBox="0 0 512 512" style="enable-background:new 0 0 512 512;" xml:space="preserve"><linearGradient id="SVGID_1_" gradientUnits="userSpaceOnUse" x1="0" y1="258" x2="512" y2="258" gradientTransform="matrix(1 0 0 -1 0 514)"><stop offset="0" style="stop-color:#80D8FF"></stop><stop offset="1" style="stop-color:#EA80FC"></stop></linearGradient><path style="fill:url(#SVGID_1_);" d="M492,0H132c-11.046,0-20,8.954-20,20v216H20c-11.046,0-20,8.954-20,20v236 c0,11.046,8.954,20,20,20h236c11.046,0,20-8.954,20-20v-92h216c11.046,0,20-8.954,20-20V20C512,8.954,503.046,0,492,0z M236,472H40 V276h72v104c0,11.046,8.954,20,20,20h104V472z M236,360h-84v-84h84V360z M472,360H276V256c0-11.046-8.954-20-20-20H152V40h320V360z"></path></svg>