<svg width='50px' height='50px' id="Capa_1" enable-background="new 0 0 512 512" viewBox="0 0 512 512" xmlns="http://www.w3.org/2000/svg" xmlns:xlink="http://www.w3.org/1999/xlink"><linearGradient id="SVGID_1_" gradientUnits="userSpaceOnUse" x1="0" x2="512" y1="256" y2="256"><stop offset="0" stop-color="#80d8ff"></stop><stop offset="1" stop-color="#ea80fc"></stop></linearGradient><path d="m479.817 349.736-207.947-178.233c11.555-46.207-1.332-96.155-36.302-131.125-41.027-41.026-103.857-52.005-156.347-27.323-12.543 5.898-15.411 22.465-5.632 32.244l64.385 64.383-28.288 28.287-64.385-64.383c-9.801-9.8-26.36-6.883-32.245 5.631-24.684 52.488-13.703 115.316 27.324 156.341 18.904 18.904 42.665 31.829 68.712 37.378 20.719 4.414 42.038 4.02 62.417-1.077l178.239 207.938c34.984 40.815 97.306 43.148 135.262 5.195 37.961-37.959 35.56-100.325-5.193-135.256zm-23.094 106.969c-21.412 21.412-56.661 20.319-76.599-2.942l-186.734-217.847c-5.403-6.304-14.154-8.626-21.992-5.792-35.632 12.89-75.957 3.919-102.73-22.852-21.758-21.757-31.619-52.147-27.92-81.664l54.794 54.791c7.812 7.811 20.476 7.811 28.288 0l56.576-56.574c7.812-7.811 7.812-20.476 0-28.287l-54.793-54.791c29.514-3.7 59.909 6.161 81.667 27.919 26.773 26.773 35.744 67.095 22.853 102.726-2.829 7.822-.524 16.578 5.792 21.991l217.856 186.727c22.994 19.707 24.604 54.933 2.942 76.595z" fill="url(#SVGID_1_)"></path></svg>