<svg width='50px' height='50px' version="1.1" id="Capa_1" xmlns="http://www.w3.org/2000/svg" xmlns:xlink="http://www.w3.org/1999/xlink" x="0px" y="0px" viewBox="0 0 512 512" style="enable-background:new 0 0 512 512;" xml:space="preserve"><linearGradient id="SVGID_1_" gradientUnits="userSpaceOnUse" x1="0" y1="258" x2="512" y2="258" gradientTransform="matrix(1 0 0 -1 0 514)"><stop offset="0" style="stop-color:#80D8FF"></stop><stop offset="1" style="stop-color:#EA80FC"></stop></linearGradient><path style="fill:url(#SVGID_1_);" d="M492,181h-60.528c-9.432-51.138-54.347-90-108.172-90s-98.74,38.862-108.172,90H20 c-11.046,0-20,8.954-20,20v160v40c0,11.046,8.954,20,20,20s20-8.954,20-20v-20h432v20c0,11.046,8.954,20,20,20s20-8.954,20-20v-40 V201C512,189.954,503.046,181,492,181z M323.3,131c38.598,0,70,31.402,70,70s-31.402,70-70,70s-70-31.402-70-70 S284.702,131,323.3,131z M40,221h175.122c9.405,51.01,54.238,90,108.178,90c53.37,0,98.655-38.354,108.178-90H472v120H40V221z"></path></svg>