<svg width="16px" height="16px" fill="#949393" id="Layer_1" enable-background="new 0 0 20 20" viewBox="0 0 20 20" xmlns="http://www.w3.org/2000/svg"><path d="m19.4 14-3.4-3.3c-.8-.8-2.3-.8-3.1 0l-1.4 1.4c-.4 0-1.3-.5-2.2-1.4-1-1-1.4-1.9-1.4-2.2l1.4-1.4c.4-.4.6-1 .6-1.5.1-.7-.2-1.2-.6-1.6l-3.3-3.4c-.8-.8-2.3-.8-3.1 0l-2 2c-2.4 2.4.5 8 4.5 12 3.3 3.3 7 5.4 9.6 5.4 1 0 1.8-.3 2.4-.9l2-2c.8-.8.8-2.2 0-3.1zm-1.5 1.7-2 2c-.9.9-4.9-.3-9.1-4.5s-5.5-8.2-4.5-9.1l2-2c0-.1.1-.1.1-.1s.1 0 .1.1l3.3 3.3s.1.1.1.1 0 .1-.1.1l-1.4 1.6c-1.2 1.2 0 3.4 1.5 4.9 1.2 1.2 2.6 2 3.7 2 .6 0 1-.3 1.3-.5l1.5-1.5c.1-.1.2-.1.3 0l3.3 3.3c0 .1 0 .2-.1.3z" ></path></svg>