<svg width='70px' height='70px' viewBox="0 0 512 512" xmlns="http://www.w3.org/2000/svg"><path d="m512 256c0 141.386719-114.613281 256-256 256s-256-114.613281-256-256 114.613281-256 256-256 256 114.613281 256 256zm0 0" fill="#4a7aff" style="fill: rgb(255, 148, 77);"></path><path d="m511.960938 259.207031-102.78125-102.777343-3.519532 7.757812-163.792968-163.792969-29.039063 288.914063-130.855469 64.667968 157.476563 157.476563c5.476562.347656 10.988281.546875 16.550781.546875 140.3125 0 254.238281-112.886719 255.960938-252.792969zm0 0" fill="#1f61e5" style="fill: rgb(229, 127, 31);"></path><path d="m81.972656 237.453125h65.84375v116.523437h-65.84375zm0 0" fill="#dce1eb" style="fill: rgb(49, 49, 53);"></path><path d="m81.972656 294.59375h65.84375v59.382812h-65.84375zm0 0" fill="#cdd2e1" style="fill: rgb(47, 45, 45);"></path><path d="m114.894531 207.078125h201.601563v177.269531h-201.601563zm0 0" fill="#fff" style="fill: rgb(49, 48, 48);"></path><path d="m114.894531 294.59375h201.601563v89.753906h-201.601563zm0 0" fill="#e9edf5" style="fill: rgb(33, 33, 33);"></path><path d="m409.179688 435-92.683594-50.652344v-177.269531l92.683594-50.648437zm0 0" fill="#dce1eb" style="fill: rgb(49, 49, 53);"></path><path d="m316.496094 294.59375v89.753906l92.683594 50.652344v-140.40625zm0 0" fill="#cdd2e1" style="fill: rgb(47, 45, 45);"></path><path d="m189.527344 8.734375v284.875c0 14.453125 11.714844 26.167969 26.167968 26.167969 14.453126 0 26.171876-11.714844 26.171876-26.167969v-293.214844c-18.007813.980469-35.515626 3.828125-52.339844 8.339844zm0 0" fill="#dce1eb" style="fill: rgb(49, 49, 53);"></path><path d="m215.332031 3.226562v316.542969c.121094 0 .242188.007813.363281.007813 14.453126 0 26.171876-11.71875 26.171876-26.171875v-293.210938c-8.976563.488281-17.828126 1.441407-26.535157 2.832031zm0 0" fill="#cdd2e1" style="fill: rgb(47, 45, 45);"></path><path d="m230.046875 291.074219c0 7.925781-6.425781 14.351562-14.351563 14.351562-7.925781 0-14.351562-6.425781-14.351562-14.351562s6.425781-14.351563 14.351562-14.351563c7.925782 0 14.351563 6.425782 14.351563 14.351563zm0 0" fill="#bec3d2" style="fill: rgb(240, 172, 25);"></path><path d="m215.695312 276.722656c-.121093 0-.242187.015625-.363281.019532v28.664062c.121094.003906.242188.019531.363281.019531 7.925782 0 14.351563-6.425781 14.351563-14.351562s-6.425781-14.351563-14.351563-14.351563zm0 0" fill="#afb4c8" style="fill: rgb(223, 169, 22);"></path></svg>